# xmcd
#
# Track frame offsets:
#	150
#	20560
#	38729
#	59378
#	69027
#	88957
#	103431
#	121112
#	131102
#	148993
#	164167
#	187361
#	207468
#	228838
#	247471
#	276480
#	287036
#	302112
#
# Disc length: 4279 seconds
#
# Revision: 6
# Processed by: cddbd v1.4PL0 Copyright (c) Steve Scherf et al.
# Submitted via: MusicWizard 6.0.2
#
DISCID=2c10b512
DTITLE=Moby - 18
DYEAR=1900
DGENRE=Electronic
TTITLE0=We Are All Made Of Stars
TTITLE1=In This World
TTITLE2=In My Heart
TTITLE3=Great Escape
TTITLE4=Signs Of Love
TTITLE5=One Of These Mornings
TTITLE6=Another Woman
TTITLE7=Fireworks
TTITLE8=Extreme Ways
TTITLE9=Jam For The Ladies
TTITLE10=Sunday (The Day Before My Birthday)
TTITLE11=18
TTITLE12=Sleep Alone
TTITLE13=At Least We Tried
TTITLE14=Harbour
TTITLE15=Look Back In
TTITLE16=The Rafters
TTITLE17=I'm Not Worried At All
EXTD=
EXTT0=
EXTT1=
EXTT2=
EXTT3=
EXTT4=
EXTT5=
EXTT6=
EXTT7=
EXTT8=
EXTT9=
EXTT10=
EXTT11=
EXTT12=
EXTT13=
EXTT14=
EXTT15=
EXTT16=
EXTT17=
PLAYORDER=
